STARTFONT 2.1
FONT -zevv-peep-Medium-R-Normal--16-120-100-100-C-80-ISO8859-1
SIZE 16 75 75
FONTBOUNDINGBOX 8 16 0 -3
COMMENT "Generated by fontforge, http://fontforge.sourceforge.net"
STARTPROPERTIES 29
FONTNAME_REGISTRY ""
FOUNDRY "zevv"
FAMILY_NAME "peep"
WEIGHT_NAME "Medium"
SLANT "R"
SETWIDTH_NAME "Normal"
ADD_STYLE_NAME ""
PIXEL_SIZE 16
POINT_SIZE 120
RESOLUTION_X 100
RESOLUTION_Y 100
SPACING "C"
AVERAGE_WIDTH 80
CHARSET_REGISTRY "ISO8859"
CHARSET_ENCODING "1"
COPYRIGHT "Zevv"
WEIGHT 100
RESOLUTION 75
X_HEIGHT 7
FIGURE_WIDTH 8
QUAD_WIDTH 8
FONT_ASCENT 13
FONT_DESCENT 3
RELATIVE_WEIGHT 50
RELATIVE_SETWIDTH 50
CAP_HEIGHT 10
UNDERLINE_POSITION -2
UNDERLINE_THICKNESS 1
_GBDFED_INFO "Edited with gbdfed 1.3."
ENDPROPERTIES
CHARS 256
STARTCHAR solid
ENCODING 0
SWIDTH 480 0
DWIDTH 8 0
BBX 6 13 1 -1
BITMAP
FC
FC
FC
FC
FC
FC
FC
FC
FC
FC
FC
FC
FC
ENDCHAR
STARTCHAR diamond
ENCODING 1
SWIDTH 480 0
DWIDTH 8 0
BBX 7 7 1 2
BITMAP
10
38
7C
FE
7C
38
10
ENDCHAR
STARTCHAR dithered
ENCODING 2
SWIDTH 480 0
DWIDTH 8 0
BBX 8 14 0 -2
BITMAP
55
AA
55
AA
55
AA
55
AA
55
AA
55
AA
55
AA
ENDCHAR
STARTCHAR horizontal
ENCODING 3
SWIDTH 480 0
DWIDTH 8 0
BBX 7 13 1 -1
BITMAP
88
88
F8
88
88
88
00
3E
08
08
08
08
08
ENDCHAR
STARTCHAR form
ENCODING 4
SWIDTH 480 0
DWIDTH 8 0
BBX 7 13 1 -1
BITMAP
F8
80
F0
80
80
80
00
3E
20
3C
20
20
20
ENDCHAR
STARTCHAR carriage
ENCODING 5
SWIDTH 480 0
DWIDTH 8 0
BBX 7 13 1 -1
BITMAP
70
88
80
80
88
70
00
3C
22
22
3C
24
22
ENDCHAR
STARTCHAR line
ENCODING 6
SWIDTH 480 0
DWIDTH 8 0
BBX 7 13 1 -1
BITMAP
80
80
80
80
80
F8
00
3E
20
3C
20
20
20
ENDCHAR
STARTCHAR degree
ENCODING 7
SWIDTH 480 0
DWIDTH 8 0
BBX 5 5 1 6
BITMAP
70
88
88
88
70
ENDCHAR
STARTCHAR plus-minus-sign
ENCODING 8
SWIDTH 480 0
DWIDTH 8 0
BBX 7 9 1 0
BITMAP
10
10
10
FE
10
10
10
00
FE
ENDCHAR
STARTCHAR null
ENCODING 9
SWIDTH 480 0
DWIDTH 8 0
BBX 7 13 1 -1
BITMAP
88
C8
A8
A8
98
88
00
20
20
20
20
20
3E
ENDCHAR
STARTCHAR vertical
ENCODING 10
SWIDTH 480 0
DWIDTH 8 0
BBX 7 13 1 -1
BITMAP
88
88
88
50
50
20
00
3E
08
08
08
08
08
ENDCHAR
STARTCHAR box
ENCODING 11
SWIDTH 480 0
DWIDTH 8 0
BBX 4 8 0 5
BITMAP
10
10
10
10
10
10
10
F0
ENDCHAR
STARTCHAR box
ENCODING 12
SWIDTH 480 0
DWIDTH 8 0
BBX 4 8 0 -2
BITMAP
F0
10
10
10
10
10
10
10
ENDCHAR
STARTCHAR box
ENCODING 13
SWIDTH 480 0
DWIDTH 8 0
BBX 5 8 3 -2
BITMAP
F8
80
80
80
80
80
80
80
ENDCHAR
STARTCHAR box
ENCODING 14
SWIDTH 480 0
DWIDTH 8 0
BBX 5 8 3 5
BITMAP
80
80
80
80
80
80
80
F8
ENDCHAR
STARTCHAR box
ENCODING 15
SWIDTH 480 0
DWIDTH 8 0
BBX 8 15 0 -2
BITMAP
10
10
10
10
10
10
10
FF
10
10
10
10
10
10
10
ENDCHAR
STARTCHAR box
ENCODING 16
SWIDTH 480 0
DWIDTH 8 0
BBX 8 1 0 11
BITMAP
FF
ENDCHAR
STARTCHAR box
ENCODING 17
SWIDTH 480 0
DWIDTH 8 0
BBX 8 1 0 8
BITMAP
FF
ENDCHAR
STARTCHAR box
ENCODING 18
SWIDTH 480 0
DWIDTH 8 0
BBX 8 1 0 5
BITMAP
FF
ENDCHAR
STARTCHAR box
ENCODING 19
SWIDTH 480 0
DWIDTH 8 0
BBX 8 1 0 2
BITMAP
FF
ENDCHAR
STARTCHAR box
ENCODING 20
SWIDTH 480 0
DWIDTH 8 0
BBX 8 1 0 -1
BITMAP
FF
ENDCHAR
STARTCHAR box
ENCODING 21
SWIDTH 480 0
DWIDTH 8 0
BBX 5 15 3 -2
BITMAP
80
80
80
80
80
80
80
F8
80
80
80
80
80
80
80
ENDCHAR
STARTCHAR box
ENCODING 22
SWIDTH 480 0
DWIDTH 8 0
BBX 4 15 0 -2
BITMAP
10
10
10
10
10
10
10
F0
10
10
10
10
10
10
10
ENDCHAR
STARTCHAR box
ENCODING 23
SWIDTH 480 0
DWIDTH 8 0
BBX 8 8 0 5
BITMAP
10
10
10
10
10
10
10
FF
ENDCHAR
STARTCHAR box
ENCODING 24
SWIDTH 480 0
DWIDTH 8 0
BBX 8 8 0 -2
BITMAP
FF
10
10
10
10
10
10
10
ENDCHAR
STARTCHAR box
ENCODING 25
SWIDTH 480 0
DWIDTH 8 0
BBX 1 15 3 -2
BITMAP
80
80
80
80
80
80
80
80
80
80
80
80
80
80
80
ENDCHAR
STARTCHAR less-than-or-equal
ENCODING 26
SWIDTH 480 0
DWIDTH 8 0
BBX 6 11 1 0
BITMAP
08
10
20
40
80
40
20
10
08
00
FC
ENDCHAR
STARTCHAR greater-than-or-equal
ENCODING 27
SWIDTH 480 0
DWIDTH 8 0
BBX 6 11 1 0
BITMAP
40
20
10
08
04
08
10
20
40
00
FC
ENDCHAR
STARTCHAR greek
ENCODING 28
SWIDTH 480 0
DWIDTH 8 0
BBX 6 7 1 1
BITMAP
FC
48
48
48
48
48
44
ENDCHAR
STARTCHAR not-equal
ENCODING 29
SWIDTH 480 0
DWIDTH 8 0
BBX 6 8 1 1
BITMAP
04
08
FC
10
20
FC
40
80
ENDCHAR
STARTCHAR pound
ENCODING 30
SWIDTH 480 0
DWIDTH 8 0
BBX 6 10 1 1
BITMAP
38
44
40
40
40
F0
40
40
40
FC
ENDCHAR
STARTCHAR middle
ENCODING 31
SWIDTH 480 0
DWIDTH 8 0
BBX 3 3 2 4
BITMAP
40
E0
40
ENDCHAR
STARTCHAR U+0020
ENCODING 32
SWIDTH 480 0
DWIDTH 8 0
BBX 1 1 7 -3
BITMAP
00
ENDCHAR
STARTCHAR U+0021
ENCODING 33
SWIDTH 480 0
DWIDTH 8 0
BBX 1 10 3 1
BITMAP
80
80
80
80
80
80
80
00
80
80
ENDCHAR
STARTCHAR U+0022
ENCODING 34
SWIDTH 480 0
DWIDTH 8 0
BBX 3 4 2 7
BITMAP
A0
A0
A0
A0
ENDCHAR
STARTCHAR U+0023
ENCODING 35
SWIDTH 480 0
DWIDTH 8 0
BBX 6 8 1 2
BITMAP
48
48
FC
48
48
FC
48
48
ENDCHAR
STARTCHAR U+0024
ENCODING 36
SWIDTH 480 0
DWIDTH 8 0
BBX 5 9 1 1
BITMAP
20
78
A0
A0
70
28
28
F0
20
ENDCHAR
STARTCHAR U+0025
ENCODING 37
SWIDTH 480 0
DWIDTH 8 0
BBX 6 10 1 1
BITMAP
44
A4
A8
50
10
20
28
54
94
88
ENDCHAR
STARTCHAR U+0026
ENCODING 38
SWIDTH 480 0
DWIDTH 8 0
BBX 6 9 1 1
BITMAP
60
90
90
60
60
94
88
88
74
ENDCHAR
STARTCHAR U+0027
ENCODING 39
SWIDTH 480 0
DWIDTH 8 0
BBX 1 4 3 7
BITMAP
80
80
80
80
ENDCHAR
STARTCHAR U+0028
ENCODING 40
SWIDTH 480 0
DWIDTH 8 0
BBX 4 13 3 -1
BITMAP
10
20
40
40
80
80
80
80
80
40
40
20
10
ENDCHAR
STARTCHAR U+0029
ENCODING 41
SWIDTH 480 0
DWIDTH 8 0
BBX 4 13 1 -1
BITMAP
80
40
20
20
10
10
10
10
10
20
20
40
80
ENDCHAR
STARTCHAR U+002a
ENCODING 42
SWIDTH 480 0
DWIDTH 8 0
BBX 6 5 1 3
BITMAP
48
30
FC
30
48
ENDCHAR
STARTCHAR U+002b
ENCODING 43
SWIDTH 480 0
DWIDTH 8 0
BBX 7 7 1 2
BITMAP
10
10
10
FE
10
10
10
ENDCHAR
STARTCHAR U+002c
ENCODING 44
SWIDTH 480 0
DWIDTH 8 0
BBX 4 4 1 -1
BITMAP
30
60
40
80
ENDCHAR
STARTCHAR U+002d
ENCODING 45
SWIDTH 480 0
DWIDTH 8 0
BBX 6 1 1 5
BITMAP
FC
ENDCHAR
STARTCHAR U+002e
ENCODING 46
SWIDTH 480 0
DWIDTH 8 0
BBX 3 3 2 0
BITMAP
40
E0
40
ENDCHAR
STARTCHAR U+002f
ENCODING 47
SWIDTH 480 0
DWIDTH 8 0
BBX 6 12 1 0
BITMAP
04
04
08
08
10
10
20
20
40
40
80
80
ENDCHAR
STARTCHAR U+0030
ENCODING 48
SWIDTH 480 0
DWIDTH 8 0
BBX 6 10 1 1
BITMAP
30
48
84
84
94
A4
84
84
48
30
ENDCHAR
STARTCHAR U+0031
ENCODING 49
SWIDTH 480 0
DWIDTH 8 0
BBX 4 10 1 1
BITMAP
10
30
50
90
10
10
10
10
10
10
ENDCHAR
STARTCHAR U+0032
ENCODING 50
SWIDTH 480 0
DWIDTH 8 0
BBX 6 10 1 1
BITMAP
78
84
84
04
08
10
20
40
80
FC
ENDCHAR
STARTCHAR U+0033
ENCODING 51
SWIDTH 480 0
DWIDTH 8 0
BBX 6 10 1 1
BITMAP
78
84
04
04
38
04
04
84
84
78
ENDCHAR
STARTCHAR U+0034
ENCODING 52
SWIDTH 480 0
DWIDTH 8 0
BBX 6 10 1 1
BITMAP
18
28
28
48
48
88
FC
08
08
08
ENDCHAR
STARTCHAR U+0035
ENCODING 53
SWIDTH 480 0
DWIDTH 8 0
BBX 6 10 1 1
BITMAP
FC
80
80
F8
84
04
04
84
84
78
ENDCHAR
STARTCHAR U+0036
ENCODING 54
SWIDTH 480 0
DWIDTH 8 0
BBX 6 10 1 1
BITMAP
78
84
80
80
B8
C4
84
84
84
78
ENDCHAR
STARTCHAR U+0037
ENCODING 55
SWIDTH 480 0
DWIDTH 8 0
BBX 6 10 1 1
BITMAP
FC
04
08
08
10
10
20
20
40
40
ENDCHAR
STARTCHAR U+0038
ENCODING 56
SWIDTH 480 0
DWIDTH 8 0
BBX 6 10 1 1
BITMAP
78
84
84
84
78
84
84
84
84
78
ENDCHAR
STARTCHAR U+0039
ENCODING 57
SWIDTH 480 0
DWIDTH 8 0
BBX 6 10 1 1
BITMAP
78
84
84
84
8C
74
04
04
84
78
ENDCHAR
STARTCHAR U+003a
ENCODING 58
SWIDTH 480 0
DWIDTH 8 0
BBX 3 9 2 0
BITMAP
40
E0
40
00
00
00
40
E0
40
ENDCHAR
STARTCHAR U+003b
ENCODING 59
SWIDTH 480 0
DWIDTH 8 0
BBX 4 10 1 -1
BITMAP
20
70
20
00
00
00
30
60
40
80
ENDCHAR
STARTCHAR U+003c
ENCODING 60
SWIDTH 480 0
DWIDTH 8 0
BBX 5 9 1 1
BITMAP
08
10
20
40
80
40
20
10
08
ENDCHAR
STARTCHAR U+003d
ENCODING 61
SWIDTH 480 0
DWIDTH 8 0
BBX 6 4 1 3
BITMAP
FC
00
00
FC
ENDCHAR
STARTCHAR U+003e
ENCODING 62
SWIDTH 480 0
DWIDTH 8 0
BBX 5 9 2 1
BITMAP
80
40
20
10
08
10
20
40
80
ENDCHAR
STARTCHAR U+003f
ENCODING 63
SWIDTH 480 0
DWIDTH 8 0
BBX 5 10 1 1
BITMAP
F0
08
08
10
20
40
40
00
40
40
ENDCHAR
STARTCHAR U+0040
ENCODING 64
SWIDTH 480 0
DWIDTH 8 0
BBX 6 10 1 1
BITMAP
38
44
84
9C
A4
A4
A4
9C
40
38
ENDCHAR
STARTCHAR U+0041
ENCODING 65
SWIDTH 480 0
DWIDTH 8 0
BBX 6 10 1 1
BITMAP
78
84
84
84
84
FC
84
84
84
84
ENDCHAR
STARTCHAR U+0042
ENCODING 66
SWIDTH 480 0
DWIDTH 8 0
BBX 6 10 1 1
BITMAP
F0
88
88
88
F8
84
84
84
84
F8
ENDCHAR
STARTCHAR U+0043
ENCODING 67
SWIDTH 480 0
DWIDTH 8 0
BBX 6 10 1 1
BITMAP
78
84
84
80
80
80
80
84
84
78
ENDCHAR
STARTCHAR U+0044
ENCODING 68
SWIDTH 480 0
DWIDTH 8 0
BBX 6 10 1 1
BITMAP
F0
88
84
84
84
84
84
84
88
F0
ENDCHAR
STARTCHAR U+0045
ENCODING 69
SWIDTH 480 0
DWIDTH 8 0
BBX 6 10 1 1
BITMAP
FC
80
80
80
F8
80
80
80
80
FC
ENDCHAR
STARTCHAR U+0046
ENCODING 70
SWIDTH 480 0
DWIDTH 8 0
BBX 6 10 1 1
BITMAP
FC
80
80
80
F8
80
80
80
80
80
ENDCHAR
STARTCHAR U+0047
ENCODING 71
SWIDTH 480 0
DWIDTH 8 0
BBX 6 10 1 1
BITMAP
78
84
84
80
80
9C
84
84
84
78
ENDCHAR
STARTCHAR U+0048
ENCODING 72
SWIDTH 480 0
DWIDTH 8 0
BBX 6 10 1 1
BITMAP
84
84
84
84
FC
84
84
84
84
84
ENDCHAR
STARTCHAR U+0049
ENCODING 73
SWIDTH 480 0
DWIDTH 8 0
BBX 5 10 1 1
BITMAP
F8
20
20
20
20
20
20
20
20
F8
ENDCHAR
STARTCHAR U+004a
ENCODING 74
SWIDTH 480 0
DWIDTH 8 0
BBX 6 10 1 1
BITMAP
3C
04
04
04
04
04
04
84
84
78
ENDCHAR
STARTCHAR U+004b
ENCODING 75
SWIDTH 480 0
DWIDTH 8 0
BBX 6 10 1 1
BITMAP
84
88
90
A0
D0
90
88
88
84
84
ENDCHAR
STARTCHAR U+004c
ENCODING 76
SWIDTH 480 0
DWIDTH 8 0
BBX 6 10 1 1
BITMAP
80
80
80
80
80
80
80
80
80
FC
ENDCHAR
STARTCHAR U+004d
ENCODING 77
SWIDTH 480 0
DWIDTH 8 0
BBX 7 10 1 1
BITMAP
82
C6
C6
AA
AA
92
92
82
82
82
ENDCHAR
STARTCHAR U+004e
ENCODING 78
SWIDTH 480 0
DWIDTH 8 0
BBX 6 10 1 1
BITMAP
84
C4
C4
A4
A4
94
94
8C
8C
84
ENDCHAR
STARTCHAR U+004f
ENCODING 79
SWIDTH 480 0
DWIDTH 8 0
BBX 6 10 1 1
BITMAP
78
84
84
84
84
84
84
84
84
78
ENDCHAR
STARTCHAR U+0050
ENCODING 80
SWIDTH 480 0
DWIDTH 8 0
BBX 6 10 1 1
BITMAP
F8
84
84
84
84
F8
80
80
80
80
ENDCHAR
STARTCHAR U+0051
ENCODING 81
SWIDTH 480 0
DWIDTH 8 0
BBX 6 11 1 0
BITMAP
78
84
84
84
84
84
84
94
94
78
0C
ENDCHAR
STARTCHAR U+0052
ENCODING 82
SWIDTH 480 0
DWIDTH 8 0
BBX 6 10 1 1
BITMAP
F8
84
84
84
84
F8
A0
90
88
84
ENDCHAR
STARTCHAR U+0053
ENCODING 83
SWIDTH 480 0
DWIDTH 8 0
BBX 6 10 1 1
BITMAP
78
84
80
80
60
18
04
04
84
78
ENDCHAR
STARTCHAR U+0054
ENCODING 84
SWIDTH 480 0
DWIDTH 8 0
BBX 7 10 1 1
BITMAP
FE
10
10
10
10
10
10
10
10
10
ENDCHAR
STARTCHAR U+0055
ENCODING 85
SWIDTH 480 0
DWIDTH 8 0
BBX 6 10 1 1
BITMAP
84
84
84
84
84
84
84
84
84
78
ENDCHAR
STARTCHAR U+0056
ENCODING 86
SWIDTH 480 0
DWIDTH 8 0
BBX 6 10 1 1
BITMAP
84
84
84
84
84
84
48
48
30
30
ENDCHAR
STARTCHAR U+0057
ENCODING 87
SWIDTH 480 0
DWIDTH 8 0
BBX 7 10 1 1
BITMAP
82
82
82
82
92
92
AA
AA
44
44
ENDCHAR
STARTCHAR U+0058
ENCODING 88
SWIDTH 480 0
DWIDTH 8 0
BBX 6 10 1 1
BITMAP
84
84
48
48
30
30
48
48
84
84
ENDCHAR
STARTCHAR U+0059
ENCODING 89
SWIDTH 480 0
DWIDTH 8 0
BBX 6 10 1 1
BITMAP
84
84
84
84
48
30
10
10
10
10
ENDCHAR
STARTCHAR U+005a
ENCODING 90
SWIDTH 480 0
DWIDTH 8 0
BBX 6 10 1 1
BITMAP
FC
04
08
08
10
20
20
40
80
FC
ENDCHAR
STARTCHAR U+005b
ENCODING 91
SWIDTH 480 0
DWIDTH 8 0
BBX 4 13 3 -1
BITMAP
F0
80
80
80
80
80
80
80
80
80
80
80
F0
ENDCHAR
STARTCHAR U+005c
ENCODING 92
SWIDTH 480 0
DWIDTH 8 0
BBX 6 12 1 0
BITMAP
80
80
40
40
20
20
10
10
08
08
04
04
ENDCHAR
STARTCHAR U+005d
ENCODING 93
SWIDTH 480 0
DWIDTH 8 0
BBX 4 13 1 -1
BITMAP
F0
10
10
10
10
10
10
10
10
10
10
10
F0
ENDCHAR
STARTCHAR U+005e
ENCODING 94
SWIDTH 480 0
DWIDTH 8 0
BBX 6 3 1 8
BITMAP
30
48
84
ENDCHAR
STARTCHAR U+005f
ENCODING 95
SWIDTH 480 0
DWIDTH 8 0
BBX 6 1 1 -1
BITMAP
FC
ENDCHAR
STARTCHAR U+0060
ENCODING 96
SWIDTH 480 0
DWIDTH 8 0
BBX 4 4 2 7
BITMAP
C0
60
20
10
ENDCHAR
STARTCHAR U+0061
ENCODING 97
SWIDTH 480 0
DWIDTH 8 0
BBX 6 7 1 1
BITMAP
78
04
7C
84
84
8C
74
ENDCHAR
STARTCHAR U+0062
ENCODING 98
SWIDTH 480 0
DWIDTH 8 0
BBX 6 10 1 1
BITMAP
80
80
80
B8
C4
84
84
84
C4
B8
ENDCHAR
STARTCHAR U+0063
ENCODING 99
SWIDTH 480 0
DWIDTH 8 0
BBX 6 7 1 1
BITMAP
78
84
80
80
80
84
78
ENDCHAR
STARTCHAR U+0064
ENCODING 100
SWIDTH 480 0
DWIDTH 8 0
BBX 6 10 1 1
BITMAP
04
04
04
74
8C
84
84
84
8C
74
ENDCHAR
STARTCHAR U+0065
ENCODING 101
SWIDTH 480 0
DWIDTH 8 0
BBX 6 7 1 1
BITMAP
78
84
84
FC
80
80
7C
ENDCHAR
STARTCHAR U+0066
ENCODING 102
SWIDTH 480 0
DWIDTH 8 0
BBX 6 10 1 1
BITMAP
38
44
40
40
40
F8
40
40
40
40
ENDCHAR
STARTCHAR U+0067
ENCODING 103
SWIDTH 480 0
DWIDTH 8 0
BBX 6 10 1 -2
BITMAP
74
8C
84
84
8C
74
04
04
84
78
ENDCHAR
STARTCHAR U+0068
ENCODING 104
SWIDTH 480 0
DWIDTH 8 0
BBX 6 10 1 1
BITMAP
80
80
80
B8
C4
84
84
84
84
84
ENDCHAR
STARTCHAR U+0069
ENCODING 105
SWIDTH 480 0
DWIDTH 8 0
BBX 3 10 2 1
BITMAP
20
20
00
E0
20
20
20
20
20
20
ENDCHAR
STARTCHAR U+006a
ENCODING 106
SWIDTH 480 0
DWIDTH 8 0
BBX 5 12 1 -1
BITMAP
08
08
00
38
08
08
08
08
08
08
88
70
ENDCHAR
STARTCHAR U+006b
ENCODING 107
SWIDTH 480 0
DWIDTH 8 0
BBX 6 10 1 1
BITMAP
80
80
80
88
90
A0
E0
90
88
84
ENDCHAR
STARTCHAR U+006c
ENCODING 108
SWIDTH 480 0
DWIDTH 8 0
BBX 4 10 2 1
BITMAP
80
80
80
80
80
80
80
80
80
70
ENDCHAR
STARTCHAR U+006d
ENCODING 109
SWIDTH 480 0
DWIDTH 8 0
BBX 7 7 1 1
BITMAP
EC
92
92
92
92
82
82
ENDCHAR
STARTCHAR U+006e
ENCODING 110
SWIDTH 480 0
DWIDTH 8 0
BBX 6 7 1 1
BITMAP
B8
C4
84
84
84
84
84
ENDCHAR
STARTCHAR U+006f
ENCODING 111
SWIDTH 480 0
DWIDTH 8 0
BBX 6 7 1 1
BITMAP
78
84
84
84
84
84
78
ENDCHAR
STARTCHAR U+0070
ENCODING 112
SWIDTH 480 0
DWIDTH 8 0
BBX 6 10 1 -2
BITMAP
B8
C4
84
84
C4
B8
80
80
80
80
ENDCHAR
STARTCHAR U+0071
ENCODING 113
SWIDTH 480 0
DWIDTH 8 0
BBX 6 10 1 -2
BITMAP
74
8C
84
84
8C
74
04
04
04
04
ENDCHAR
STARTCHAR U+0072
ENCODING 114
SWIDTH 480 0
DWIDTH 8 0
BBX 6 7 1 1
BITMAP
B8
C4
80
80
80
80
80
ENDCHAR
STARTCHAR U+0073
ENCODING 115
SWIDTH 480 0
DWIDTH 8 0
BBX 6 7 1 1
BITMAP
78
84
80
78
04
84
78
ENDCHAR
STARTCHAR U+0074
ENCODING 116
SWIDTH 480 0
DWIDTH 8 0
BBX 6 9 1 1
BITMAP
40
40
F8
40
40
40
40
44
38
ENDCHAR
STARTCHAR U+0075
ENCODING 117
SWIDTH 480 0
DWIDTH 8 0
BBX 6 7 1 1
BITMAP
84
84
84
84
84
8C
74
ENDCHAR
STARTCHAR U+0076
ENCODING 118
SWIDTH 480 0
DWIDTH 8 0
BBX 6 7 1 1
BITMAP
84
84
84
48
48
30
30
ENDCHAR
STARTCHAR U+0077
ENCODING 119
SWIDTH 480 0
DWIDTH 8 0
BBX 7 7 1 1
BITMAP
82
82
92
92
92
AA
44
ENDCHAR
STARTCHAR U+0078
ENCODING 120
SWIDTH 480 0
DWIDTH 8 0
BBX 6 7 1 1
BITMAP
84
48
30
00
30
48
84
ENDCHAR
STARTCHAR U+0079
ENCODING 121
SWIDTH 480 0
DWIDTH 8 0
BBX 6 10 1 -2
BITMAP
84
84
84
84
8C
74
04
04
84
78
ENDCHAR
STARTCHAR U+007a
ENCODING 122
SWIDTH 480 0
DWIDTH 8 0
BBX 6 7 1 1
BITMAP
FC
04
08
10
20
40
FC
ENDCHAR
STARTCHAR U+007b
ENCODING 123
SWIDTH 480 0
DWIDTH 8 0
BBX 5 13 2 -1
BITMAP
18
20
20
20
20
20
C0
20
20
20
20
20
18
ENDCHAR
STARTCHAR U+007c
ENCODING 124
SWIDTH 480 0
DWIDTH 8 0
BBX 1 12 3 0
BITMAP
80
80
80
80
80
80
80
80
80
80
80
80
ENDCHAR
STARTCHAR U+007d
ENCODING 125
SWIDTH 480 0
DWIDTH 8 0
BBX 5 13 1 -1
BITMAP
C0
20
20
20
20
20
18
20
20
20
20
20
C0
ENDCHAR
STARTCHAR U+007e
ENCODING 126
SWIDTH 480 0
DWIDTH 8 0
BBX 7 3 1 7
BITMAP
62
92
8C
ENDCHAR
STARTCHAR nil
ENCODING 127
SWIDTH 480 0
DWIDTH 8 0
BBX 6 13 1 -1
BITMAP
FC
84
84
84
84
84
84
84
84
84
84
84
FC
ENDCHAR
STARTCHAR nil
ENCODING 128
SWIDTH 480 0
DWIDTH 8 0
BBX 6 13 1 -1
BITMAP
FC
84
84
84
84
84
84
84
84
84
84
84
FC
ENDCHAR
STARTCHAR nil
ENCODING 129
SWIDTH 480 0
DWIDTH 8 0
BBX 6 13 1 -1
BITMAP
FC
84
84
84
84
84
84
84
84
84
84
84
FC
ENDCHAR
STARTCHAR nil
ENCODING 130
SWIDTH 480 0
DWIDTH 8 0
BBX 6 13 1 -1
BITMAP
FC
84
84
84
84
84
84
84
84
84
84
84
FC
ENDCHAR
STARTCHAR nil
ENCODING 131
SWIDTH 480 0
DWIDTH 8 0
BBX 6 13 1 -1
BITMAP
FC
84
84
84
84
84
84
84
84
84
84
84
FC
ENDCHAR
STARTCHAR nil
ENCODING 132
SWIDTH 480 0
DWIDTH 8 0
BBX 6 13 1 -1
BITMAP
FC
84
84
84
84
84
84
84
84
84
84
84
FC
ENDCHAR
STARTCHAR nil
ENCODING 133
SWIDTH 480 0
DWIDTH 8 0
BBX 6 13 1 -1
BITMAP
FC
84
84
84
84
84
84
84
84
84
84
84
FC
ENDCHAR
STARTCHAR nil
ENCODING 134
SWIDTH 480 0
DWIDTH 8 0
BBX 6 13 1 -1
BITMAP
FC
84
84
84
84
84
84
84
84
84
84
84
FC
ENDCHAR
STARTCHAR nil
ENCODING 135
SWIDTH 480 0
DWIDTH 8 0
BBX 6 13 1 -1
BITMAP
FC
84
84
84
84
84
84
84
84
84
84
84
FC
ENDCHAR
STARTCHAR nil
ENCODING 136
SWIDTH 480 0
DWIDTH 8 0
BBX 6 13 1 -1
BITMAP
FC
84
84
84
84
84
84
84
84
84
84
84
FC
ENDCHAR
STARTCHAR nil
ENCODING 137
SWIDTH 480 0
DWIDTH 8 0
BBX 6 13 1 -1
BITMAP
FC
84
84
84
84
84
84
84
84
84
84
84
FC
ENDCHAR
STARTCHAR nil
ENCODING 138
SWIDTH 480 0
DWIDTH 8 0
BBX 6 13 1 -1
BITMAP
FC
84
84
84
84
84
84
84
84
84
84
84
FC
ENDCHAR
STARTCHAR nil
ENCODING 139
SWIDTH 480 0
DWIDTH 8 0
BBX 6 13 1 -1
BITMAP
FC
84
84
84
84
84
84
84
84
84
84
84
FC
ENDCHAR
STARTCHAR nil
ENCODING 140
SWIDTH 480 0
DWIDTH 8 0
BBX 6 13 1 -1
BITMAP
FC
84
84
84
84
84
84
84
84
84
84
84
FC
ENDCHAR
STARTCHAR nil
ENCODING 141
SWIDTH 480 0
DWIDTH 8 0
BBX 6 13 1 -1
BITMAP
FC
84
84
84
84
84
84
84
84
84
84
84
FC
ENDCHAR
STARTCHAR nil
ENCODING 142
SWIDTH 480 0
DWIDTH 8 0
BBX 6 13 1 -1
BITMAP
FC
84
84
84
84
84
84
84
84
84
84
84
FC
ENDCHAR
STARTCHAR nil
ENCODING 143
SWIDTH 480 0
DWIDTH 8 0
BBX 6 13 1 -1
BITMAP
FC
84
84
84
84
84
84
84
84
84
84
84
FC
ENDCHAR
STARTCHAR nil
ENCODING 144
SWIDTH 480 0
DWIDTH 8 0
BBX 6 13 1 -1
BITMAP
FC
84
84
84
84
84
84
84
84
84
84
84
FC
ENDCHAR
STARTCHAR nil
ENCODING 145
SWIDTH 480 0
DWIDTH 8 0
BBX 6 13 1 -1
BITMAP
FC
84
84
84
84
84
84
84
84
84
84
84
FC
ENDCHAR
STARTCHAR nil
ENCODING 146
SWIDTH 480 0
DWIDTH 8 0
BBX 6 13 1 -1
BITMAP
FC
84
84
84
84
84
84
84
84
84
84
84
FC
ENDCHAR
STARTCHAR nil
ENCODING 147
SWIDTH 480 0
DWIDTH 8 0
BBX 6 13 1 -1
BITMAP
FC
84
84
84
84
84
84
84
84
84
84
84
FC
ENDCHAR
STARTCHAR nil
ENCODING 148
SWIDTH 480 0
DWIDTH 8 0
BBX 6 13 1 -1
BITMAP
FC
84
84
84
84
84
84
84
84
84
84
84
FC
ENDCHAR
STARTCHAR nil
ENCODING 149
SWIDTH 480 0
DWIDTH 8 0
BBX 6 13 1 -1
BITMAP
FC
84
84
84
84
84
84
84
84
84
84
84
FC
ENDCHAR
STARTCHAR nil
ENCODING 150
SWIDTH 480 0
DWIDTH 8 0
BBX 6 13 1 -1
BITMAP
FC
84
84
84
84
84
84
84
84
84
84
84
FC
ENDCHAR
STARTCHAR nil
ENCODING 151
SWIDTH 480 0
DWIDTH 8 0
BBX 6 13 1 -1
BITMAP
FC
84
84
84
84
84
84
84
84
84
84
84
FC
ENDCHAR
STARTCHAR nil
ENCODING 152
SWIDTH 480 0
DWIDTH 8 0
BBX 6 13 1 -1
BITMAP
FC
84
84
84
84
84
84
84
84
84
84
84
FC
ENDCHAR
STARTCHAR nil
ENCODING 153
SWIDTH 480 0
DWIDTH 8 0
BBX 6 13 1 -1
BITMAP
FC
84
84
84
84
84
84
84
84
84
84
84
FC
ENDCHAR
STARTCHAR nil
ENCODING 154
SWIDTH 480 0
DWIDTH 8 0
BBX 6 13 1 -1
BITMAP
FC
84
84
84
84
84
84
84
84
84
84
84
FC
ENDCHAR
STARTCHAR nil
ENCODING 155
SWIDTH 480 0
DWIDTH 8 0
BBX 6 13 1 -1
BITMAP
FC
84
84
84
84
84
84
84
84
84
84
84
FC
ENDCHAR
STARTCHAR nil
ENCODING 156
SWIDTH 480 0
DWIDTH 8 0
BBX 6 13 1 -1
BITMAP
FC
84
84
84
84
84
84
84
84
84
84
84
FC
ENDCHAR
STARTCHAR nil
ENCODING 157
SWIDTH 480 0
DWIDTH 8 0
BBX 6 13 1 -1
BITMAP
FC
84
84
84
84
84
84
84
84
84
84
84
FC
ENDCHAR
STARTCHAR nil
ENCODING 158
SWIDTH 480 0
DWIDTH 8 0
BBX 6 13 1 -1
BITMAP
FC
84
84
84
84
84
84
84
84
84
84
84
FC
ENDCHAR
STARTCHAR nil
ENCODING 159
SWIDTH 480 0
DWIDTH 8 0
BBX 6 13 1 -1
BITMAP
FC
84
84
84
84
84
84
84
84
84
84
84
FC
ENDCHAR
STARTCHAR U+00a0
ENCODING 160
SWIDTH 480 0
DWIDTH 8 0
BBX 1 1 7 -3
BITMAP
00
ENDCHAR
STARTCHAR U+00a1
ENCODING 161
SWIDTH 480 0
DWIDTH 8 0
BBX 1 10 4 -2
BITMAP
80
80
00
80
80
80
80
80
80
80
ENDCHAR
STARTCHAR U+00a2
ENCODING 162
SWIDTH 480 0
DWIDTH 8 0
BBX 6 9 1 1
BITMAP
10
78
94
90
90
90
94
78
10
ENDCHAR
STARTCHAR U+00a3
ENCODING 163
SWIDTH 480 0
DWIDTH 8 0
BBX 6 10 1 1
BITMAP
38
44
40
40
40
F0
40
40
40
FC
ENDCHAR
STARTCHAR U+00a4
ENCODING 164
SWIDTH 512 0
DWIDTH 8 0
BBX 7 7 1 1
BITMAP
82
7C
44
44
44
7C
82
ENDCHAR
STARTCHAR U+00a5
ENCODING 165
SWIDTH 480 0
DWIDTH 8 0
BBX 5 10 1 1
BITMAP
88
88
50
50
20
F8
20
F8
20
20
ENDCHAR
STARTCHAR U+00a6
ENCODING 166
SWIDTH 512 0
DWIDTH 8 0
BBX 1 11 3 0
BITMAP
80
80
80
80
80
00
80
80
80
80
80
ENDCHAR
STARTCHAR U+00a7
ENCODING 167
SWIDTH 480 0
DWIDTH 8 0
BBX 5 11 1 0
BITMAP
78
80
80
70
88
88
88
70
08
08
F0
ENDCHAR
STARTCHAR U+00a8
ENCODING 168
SWIDTH 512 0
DWIDTH 8 0
BBX 4 2 2 9
BITMAP
90
90
ENDCHAR
STARTCHAR U+00ae
ENCODING 169
SWIDTH 480 0
DWIDTH 8 0
BBX 7 9 1 3
BITMAP
38
44
82
BA
A2
BA
82
44
38
ENDCHAR
STARTCHAR U+00aa
ENCODING 170
SWIDTH 480 0
DWIDTH 8 0
BBX 5 8 1 3
BITMAP
70
08
78
88
98
68
00
F8
ENDCHAR
STARTCHAR U+00ab
ENCODING 171
SWIDTH 480 0
DWIDTH 8 0
BBX 7 7 1 1
BITMAP
12
24
48
90
48
24
12
ENDCHAR
STARTCHAR U+00ac
ENCODING 172
SWIDTH 480 0
DWIDTH 8 0
BBX 6 4 1 2
BITMAP
FC
04
04
04
ENDCHAR
STARTCHAR U+00ad
ENCODING 173
SWIDTH 480 0
DWIDTH 8 0
BBX 4 1 2 5
BITMAP
F0
ENDCHAR
STARTCHAR U+00ae
ENCODING 174
SWIDTH 480 0
DWIDTH 8 0
BBX 7 9 1 3
BITMAP
38
44
82
BA
A2
A2
82
44
38
ENDCHAR
STARTCHAR U+00af
ENCODING 175
SWIDTH 480 0
DWIDTH 8 0
BBX 6 1 1 10
BITMAP
FC
ENDCHAR
STARTCHAR U+00b0
ENCODING 176
SWIDTH 480 0
DWIDTH 8 0
BBX 5 5 1 6
BITMAP
70
88
88
88
70
ENDCHAR
STARTCHAR U+00b1
ENCODING 177
SWIDTH 480 0
DWIDTH 8 0
BBX 7 9 1 0
BITMAP
10
10
10
FE
10
10
10
00
FE
ENDCHAR
STARTCHAR U+00b2
ENCODING 178
SWIDTH 480 0
DWIDTH 8 0
BBX 5 6 1 6
BITMAP
70
88
10
20
40
F8
ENDCHAR
STARTCHAR U+00b3
ENCODING 179
SWIDTH 480 0
DWIDTH 8 0
BBX 5 6 1 6
BITMAP
F8
10
30
08
88
70
ENDCHAR
STARTCHAR U+00b4
ENCODING 180
SWIDTH 512 0
DWIDTH 8 0
BBX 4 2 2 9
BITMAP
30
C0
ENDCHAR
STARTCHAR U+00b5
ENCODING 181
SWIDTH 480 0
DWIDTH 8 0
BBX 6 8 1 0
BITMAP
88
88
88
88
98
F4
80
80
ENDCHAR
STARTCHAR U+00b6
ENCODING 182
SWIDTH 480 0
DWIDTH 8 0
BBX 7 10 1 1
BITMAP
7E
D2
92
92
D2
72
12
12
12
12
ENDCHAR
STARTCHAR U+00b7
ENCODING 183
SWIDTH 480 0
DWIDTH 8 0
BBX 3 3 2 4
BITMAP
40
E0
40
ENDCHAR
STARTCHAR U+00b8
ENCODING 184
SWIDTH 512 0
DWIDTH 8 0
BBX 3 3 2 -1
BITMAP
40
20
C0
ENDCHAR
STARTCHAR U+00b9
ENCODING 185
SWIDTH 480 0
DWIDTH 8 0
BBX 3 6 2 6
BITMAP
20
60
A0
20
20
20
ENDCHAR
STARTCHAR U+00ba
ENCODING 186
SWIDTH 480 0
DWIDTH 8 0
BBX 5 8 1 3
BITMAP
70
88
88
88
88
70
00
F8
ENDCHAR
STARTCHAR U+00bb
ENCODING 187
SWIDTH 480 0
DWIDTH 8 0
BBX 7 7 1 1
BITMAP
90
48
24
12
24
48
90
ENDCHAR
STARTCHAR U+00bc
ENCODING 188
SWIDTH 480 0
DWIDTH 8 0
BBX 6 12 1 0
BITMAP
40
C0
40
40
40
40
04
0C
14
24
3C
04
ENDCHAR
STARTCHAR U+00bd
ENCODING 189
SWIDTH 480 0
DWIDTH 8 0
BBX 6 12 1 0
BITMAP
40
C0
40
40
40
40
18
24
04
08
10
3C
ENDCHAR
STARTCHAR U+00be
ENCODING 190
SWIDTH 480 0
DWIDTH 8 0
BBX 6 12 1 0
BITMAP
F0
20
60
10
90
60
04
0C
14
24
3C
04
ENDCHAR
STARTCHAR U+00bf
ENCODING 191
SWIDTH 480 0
DWIDTH 8 0
BBX 5 10 2 -2
BITMAP
10
10
00
10
10
20
40
80
C0
78
ENDCHAR
STARTCHAR U+00c0
ENCODING 192
SWIDTH 480 0
DWIDTH 8 0
BBX 6 11 1 1
BITMAP
60
18
00
78
84
84
84
FC
84
84
84
ENDCHAR
STARTCHAR U+00c1
ENCODING 193
SWIDTH 480 0
DWIDTH 8 0
BBX 6 11 1 1
BITMAP
18
60
00
78
84
84
84
FC
84
84
84
ENDCHAR
STARTCHAR U+00c2
ENCODING 194
SWIDTH 480 0
DWIDTH 8 0
BBX 6 11 1 1
BITMAP
30
48
00
78
84
84
84
FC
84
84
84
ENDCHAR
STARTCHAR U+00c3
ENCODING 195
SWIDTH 480 0
DWIDTH 8 0
BBX 6 11 1 1
BITMAP
64
98
00
78
84
84
84
FC
84
84
84
ENDCHAR
STARTCHAR U+00c4
ENCODING 196
SWIDTH 480 0
DWIDTH 8 0
BBX 6 11 1 1
BITMAP
48
48
00
78
84
84
84
FC
84
84
84
ENDCHAR
STARTCHAR U+00c5
ENCODING 197
SWIDTH 480 0
DWIDTH 8 0
BBX 6 11 1 1
BITMAP
30
48
30
78
84
84
84
FC
84
84
84
ENDCHAR
STARTCHAR U+00c6
ENCODING 198
SWIDTH 480 0
DWIDTH 8 0
BBX 6 10 1 1
BITMAP
7C
90
90
90
9C
F0
90
90
90
9C
ENDCHAR
STARTCHAR U+00c7
ENCODING 199
SWIDTH 480 0
DWIDTH 8 0
BBX 6 12 1 -1
BITMAP
78
84
84
80
80
80
80
84
84
78
10
60
ENDCHAR
STARTCHAR U+00c8
ENCODING 200
SWIDTH 480 0
DWIDTH 8 0
BBX 6 11 1 1
BITMAP
60
18
00
FC
80
80
F8
80
80
80
FC
ENDCHAR
STARTCHAR U+00c9
ENCODING 201
SWIDTH 480 0
DWIDTH 8 0
BBX 6 11 1 1
BITMAP
18
60
00
FC
80
80
F8
80
80
80
FC
ENDCHAR
STARTCHAR U+00ca
ENCODING 202
SWIDTH 480 0
DWIDTH 8 0
BBX 6 11 1 1
BITMAP
30
48
00
FC
80
80
F8
80
80
80
FC
ENDCHAR
STARTCHAR U+00cb
ENCODING 203
SWIDTH 480 0
DWIDTH 8 0
BBX 6 11 1 1
BITMAP
48
48
00
FC
80
80
F8
80
80
80
FC
ENDCHAR
STARTCHAR U+00cc
ENCODING 204
SWIDTH 480 0
DWIDTH 8 0
BBX 5 11 1 1
BITMAP
C0
30
00
F8
20
20
20
20
20
20
F8
ENDCHAR
STARTCHAR U+00cd
ENCODING 205
SWIDTH 480 0
DWIDTH 8 0
BBX 5 11 1 1
BITMAP
18
60
00
F8
20
20
20
20
20
20
F8
ENDCHAR
STARTCHAR U+00ce
ENCODING 206
SWIDTH 480 0
DWIDTH 8 0
BBX 5 11 1 1
BITMAP
30
48
00
F8
20
20
20
20
20
20
F8
ENDCHAR
STARTCHAR U+00cf
ENCODING 207
SWIDTH 480 0
DWIDTH 8 0
BBX 5 11 1 1
BITMAP
48
48
00
F8
20
20
20
20
20
20
F8
ENDCHAR
STARTCHAR U+00d0
ENCODING 208
SWIDTH 480 0
DWIDTH 8 0
BBX 7 10 0 1
BITMAP
78
44
42
42
E2
42
42
42
44
78
ENDCHAR
STARTCHAR U+00d1
ENCODING 209
SWIDTH 480 0
DWIDTH 8 0
BBX 6 11 1 1
BITMAP
64
98
00
84
C4
C4
A4
94
8C
8C
84
ENDCHAR
STARTCHAR U+00d2
ENCODING 210
SWIDTH 480 0
DWIDTH 8 0
BBX 6 11 1 1
BITMAP
60
18
00
78
84
84
84
84
84
84
78
ENDCHAR
STARTCHAR U+00d3
ENCODING 211
SWIDTH 480 0
DWIDTH 8 0
BBX 6 11 1 1
BITMAP
18
60
00
78
84
84
84
84
84
84
78
ENDCHAR
STARTCHAR U+00d4
ENCODING 212
SWIDTH 480 0
DWIDTH 8 0
BBX 6 11 1 1
BITMAP
30
48
00
78
84
84
84
84
84
84
78
ENDCHAR
STARTCHAR U+00d5
ENCODING 213
SWIDTH 480 0
DWIDTH 8 0
BBX 6 11 1 1
BITMAP
64
98
00
78
84
84
84
84
84
84
78
ENDCHAR
STARTCHAR U+00d6
ENCODING 214
SWIDTH 480 0
DWIDTH 8 0
BBX 6 11 1 1
BITMAP
48
48
00
78
84
84
84
84
84
84
78
ENDCHAR
STARTCHAR U+00d7
ENCODING 215
SWIDTH 480 0
DWIDTH 8 0
BBX 6 6 1 2
BITMAP
84
48
30
30
48
84
ENDCHAR
STARTCHAR U+00d8
ENCODING 216
SWIDTH 480 0
DWIDTH 8 0
BBX 6 12 1 0
BITMAP
04
78
8C
8C
94
94
A4
A4
C4
C4
78
80
ENDCHAR
STARTCHAR U+00d9
ENCODING 217
SWIDTH 480 0
DWIDTH 8 0
BBX 6 11 1 1
BITMAP
60
18
00
84
84
84
84
84
84
84
78
ENDCHAR
STARTCHAR U+00da
ENCODING 218
SWIDTH 480 0
DWIDTH 8 0
BBX 6 11 1 1
BITMAP
18
60
00
84
84
84
84
84
84
84
78
ENDCHAR
STARTCHAR U+00db
ENCODING 219
SWIDTH 480 0
DWIDTH 8 0
BBX 6 11 1 1
BITMAP
30
48
00
84
84
84
84
84
84
84
78
ENDCHAR
STARTCHAR U+00dc
ENCODING 220
SWIDTH 480 0
DWIDTH 8 0
BBX 6 11 1 1
BITMAP
48
48
00
84
84
84
84
84
84
84
78
ENDCHAR
STARTCHAR U+00dd
ENCODING 221
SWIDTH 480 0
DWIDTH 8 0
BBX 6 11 1 1
BITMAP
18
60
00
84
84
84
44
28
10
10
10
ENDCHAR
STARTCHAR U+00de
ENCODING 222
SWIDTH 480 0
DWIDTH 8 0
BBX 6 10 1 1
BITMAP
80
80
F8
84
84
84
84
F8
80
80
ENDCHAR
STARTCHAR U+00df
ENCODING 223
SWIDTH 480 0
DWIDTH 8 0
BBX 6 11 1 0
BITMAP
70
88
88
90
90
88
84
84
A4
98
80
ENDCHAR
STARTCHAR U+00e0
ENCODING 224
SWIDTH 480 0
DWIDTH 8 0
BBX 6 10 1 1
BITMAP
60
18
00
78
04
7C
84
84
8C
74
ENDCHAR
STARTCHAR U+00e1
ENCODING 225
SWIDTH 480 0
DWIDTH 8 0
BBX 6 10 1 1
BITMAP
18
60
00
78
04
7C
84
84
8C
74
ENDCHAR
STARTCHAR U+00e2
ENCODING 226
SWIDTH 480 0
DWIDTH 8 0
BBX 6 10 1 1
BITMAP
30
48
00
78
04
7C
84
84
8C
74
ENDCHAR
STARTCHAR U+00e3
ENCODING 227
SWIDTH 480 0
DWIDTH 8 0
BBX 6 10 1 1
BITMAP
64
98
00
78
04
7C
84
84
8C
74
ENDCHAR
STARTCHAR U+00e4
ENCODING 228
SWIDTH 480 0
DWIDTH 8 0
BBX 6 10 1 1
BITMAP
48
48
00
78
04
7C
84
84
8C
74
ENDCHAR
STARTCHAR U+00e5
ENCODING 229
SWIDTH 480 0
DWIDTH 8 0
BBX 6 11 1 1
BITMAP
30
48
30
00
78
04
7C
84
84
8C
74
ENDCHAR
STARTCHAR U+00e6
ENCODING 230
SWIDTH 480 0
DWIDTH 8 0
BBX 7 7 1 1
BITMAP
6C
12
72
9E
90
90
6E
ENDCHAR
STARTCHAR U+00e7
ENCODING 231
SWIDTH 480 0
DWIDTH 8 0
BBX 6 9 1 -1
BITMAP
78
84
80
80
80
84
78
10
60
ENDCHAR
STARTCHAR U+00e8
ENCODING 232
SWIDTH 480 0
DWIDTH 8 0
BBX 6 10 1 1
BITMAP
60
18
00
78
84
84
FC
80
80
7C
ENDCHAR
STARTCHAR U+00e9
ENCODING 233
SWIDTH 480 0
DWIDTH 8 0
BBX 6 10 1 1
BITMAP
18
60
00
78
84
84
FC
80
80
7C
ENDCHAR
STARTCHAR U+00ea
ENCODING 234
SWIDTH 480 0
DWIDTH 8 0
BBX 6 10 1 1
BITMAP
30
48
00
78
84
84
FC
80
80
7C
ENDCHAR
STARTCHAR U+00eb
ENCODING 235
SWIDTH 480 0
DWIDTH 8 0
BBX 6 10 1 1
BITMAP
48
48
00
78
84
84
FC
80
80
7C
ENDCHAR
STARTCHAR U+00ec
ENCODING 236
SWIDTH 480 0
DWIDTH 8 0
BBX 4 10 1 1
BITMAP
C0
30
00
70
10
10
10
10
10
10
ENDCHAR
STARTCHAR U+00ed
ENCODING 237
SWIDTH 480 0
DWIDTH 8 0
BBX 5 10 2 1
BITMAP
18
60
00
E0
20
20
20
20
20
20
ENDCHAR
STARTCHAR U+00ee
ENCODING 238
SWIDTH 480 0
DWIDTH 8 0
BBX 4 10 2 1
BITMAP
60
90
00
E0
20
20
20
20
20
20
ENDCHAR
STARTCHAR U+00ef
ENCODING 239
SWIDTH 480 0
DWIDTH 8 0
BBX 4 10 2 1
BITMAP
90
90
00
E0
20
20
20
20
20
20
ENDCHAR
STARTCHAR U+00f0
ENCODING 240
SWIDTH 480 0
DWIDTH 8 0
BBX 6 11 1 1
BITMAP
80
58
20
D0
08
78
84
84
84
84
78
ENDCHAR
STARTCHAR U+00f1
ENCODING 241
SWIDTH 480 0
DWIDTH 8 0
BBX 6 10 1 1
BITMAP
64
98
00
B8
C4
84
84
84
84
84
ENDCHAR
STARTCHAR U+00f2
ENCODING 242
SWIDTH 480 0
DWIDTH 8 0
BBX 6 10 1 1
BITMAP
60
18
00
78
84
84
84
84
84
78
ENDCHAR
STARTCHAR U+00f3
ENCODING 243
SWIDTH 480 0
DWIDTH 8 0
BBX 6 10 1 1
BITMAP
18
60
00
78
84
84
84
84
84
78
ENDCHAR
STARTCHAR U+00f4
ENCODING 244
SWIDTH 480 0
DWIDTH 8 0
BBX 6 10 1 1
BITMAP
30
48
00
78
84
84
84
84
84
78
ENDCHAR
STARTCHAR U+00f5
ENCODING 245
SWIDTH 480 0
DWIDTH 8 0
BBX 6 10 1 1
BITMAP
64
98
00
78
84
84
84
84
84
78
ENDCHAR
STARTCHAR U+00f6
ENCODING 246
SWIDTH 480 0
DWIDTH 8 0
BBX 6 10 1 1
BITMAP
48
48
00
78
84
84
84
84
84
78
ENDCHAR
STARTCHAR U+00f7
ENCODING 247
SWIDTH 480 0
DWIDTH 8 0
BBX 7 7 1 2
BITMAP
10
10
00
FE
00
10
10
ENDCHAR
STARTCHAR U+00f8
ENCODING 248
SWIDTH 480 0
DWIDTH 8 0
BBX 6 9 1 0
BITMAP
04
78
8C
94
B4
A4
C4
78
80
ENDCHAR
STARTCHAR U+00f9
ENCODING 249
SWIDTH 480 0
DWIDTH 8 0
BBX 6 10 1 1
BITMAP
60
18
00
84
84
84
84
84
8C
74
ENDCHAR
STARTCHAR U+00fa
ENCODING 250
SWIDTH 480 0
DWIDTH 8 0
BBX 6 10 1 1
BITMAP
18
60
00
84
84
84
84
84
8C
74
ENDCHAR
STARTCHAR U+00fb
ENCODING 251
SWIDTH 480 0
DWIDTH 8 0
BBX 6 10 1 1
BITMAP
30
48
00
84
84
84
84
84
8C
74
ENDCHAR
STARTCHAR U+00fc
ENCODING 252
SWIDTH 480 0
DWIDTH 8 0
BBX 6 10 1 1
BITMAP
48
48
00
84
84
84
84
84
8C
74
ENDCHAR
STARTCHAR U+00fd
ENCODING 253
SWIDTH 480 0
DWIDTH 8 0
BBX 6 13 1 -2
BITMAP
18
60
00
84
84
84
84
8C
74
04
84
84
78
ENDCHAR
STARTCHAR U+00fe
ENCODING 254
SWIDTH 480 0
DWIDTH 8 0
BBX 6 13 1 -2
BITMAP
80
80
80
B8
C4
84
84
84
C4
B8
80
80
80
ENDCHAR
STARTCHAR U+00ff
ENCODING 255
SWIDTH 480 0
DWIDTH 8 0
BBX 6 13 1 -2
BITMAP
48
48
00
84
84
84
84
8C
74
04
04
84
78
ENDCHAR
ENDFONT
